<svg width="12" height="12" viewBox="0 0 12 12" fill="none" xmlns="http://www.w3.org/2000/svg">
<g clip-path="url(#clip0_223_3557)">
<g clip-path="url(#clip1_223_3557)">
<path d="M4.12114 3.66996L0.931139 4.13246L0.874639 4.14396C0.789108 4.16667 0.711136 4.21167 0.648685 4.27436C0.586234 4.33706 0.541541 4.41521 0.51917 4.50082C0.496799 4.58644 0.497552 4.67647 0.521353 4.7617C0.545153 4.84693 0.591147 4.92432 0.654639 4.98596L2.96564 7.23546L2.42064 10.413L2.41414 10.468C2.4089 10.5564 2.42727 10.6447 2.46736 10.7237C2.50746 10.8027 2.56783 10.8697 2.64231 10.9177C2.71678 10.9657 2.80268 10.9931 2.89121 10.997C2.97974 11.0009 3.06772 10.9812 3.14614 10.94L5.99914 9.43996L8.84564 10.94L8.89564 10.963C8.97817 10.9955 9.06786 11.0054 9.15552 10.9918C9.24317 10.9782 9.32563 10.9416 9.39443 10.8856C9.46324 10.8296 9.51592 10.7563 9.54706 10.6733C9.5782 10.5902 9.58668 10.5004 9.57164 10.413L9.02614 7.23546L11.3381 4.98546L11.3771 4.94296C11.4328 4.87435 11.4694 4.79219 11.483 4.70486C11.4966 4.61753 11.4869 4.52815 11.4547 4.44583C11.4225 4.3635 11.3691 4.29118 11.2999 4.23622C11.2307 4.18126 11.1481 4.14563 11.0606 4.13296L7.87064 3.66996L6.44464 0.779961C6.40338 0.696229 6.3395 0.625719 6.26023 0.576414C6.18097 0.527108 6.08949 0.500977 5.99614 0.500977C5.90279 0.500977 5.81131 0.527108 5.73204 0.576414C5.65278 0.625719 5.5889 0.696229 5.54764 0.779961L4.12114 3.66996Z" fill="#687B91"/>
</g>
</g>
<defs>
<clipPath id="clip0_223_3557">
<rect width="12" height="12" fill="white"/>
</clipPath>
<clipPath id="clip1_223_3557">
<rect width="12" height="12" fill="white"/>
</clipPath>
</defs>
</svg>
