<svg width="118" height="24" viewBox="0 0 118 24" fill="none" xmlns="http://www.w3.org/2000/svg">
<g clip-path="url(#clip0_222_323)">
<path d="M-0.000238987 9.99854C0.0521288 10.0206 0.133262 10.0286 0.153177 10.0668C1.22045 12.1262 3.07545 13.062 5.22401 13.567C6.17548 13.7901 7.14834 13.8481 8.12636 13.8473C10.955 13.8444 13.7836 13.8415 16.6114 13.8598C17.1226 13.8628 17.6403 13.9288 18.1419 14.0294C19.2763 14.2569 19.904 14.9505 20.0648 16.1343C20.1334 16.6393 20.1658 17.1523 20.1776 17.6624C20.196 18.4771 20.1629 19.2925 20.1865 20.1064C20.2425 22.0176 19.1472 22.9057 17.7038 23.2264C16.9832 23.3864 16.2338 23.4884 15.497 23.4943C11.8946 23.5207 8.29232 23.5068 4.68926 23.5061C2.31132 23.5061 0.35896 21.8048 0.0513913 19.4664C0.0432779 19.404 0.0167252 19.3446 -0.000976562 19.2837C-0.000976562 16.1886 -0.000976562 13.0936 -0.000976562 9.99927L-0.000238987 9.99854Z" fill="white"/>
<path d="M30.31 23.5054V20.163C30.4228 20.163 30.529 20.163 30.636 20.163C34.1099 20.1652 37.5832 20.1674 41.0572 20.1703C41.794 20.1703 42.5271 20.1424 43.2345 19.9046C44.2317 19.57 44.7023 18.9476 44.7082 17.9054C44.7133 17.0452 44.7037 16.185 44.672 15.3256C44.6609 15.0291 44.5909 14.7274 44.5002 14.4434C44.301 13.8166 43.7759 13.5964 43.1858 13.5215C42.6946 13.4591 42.196 13.4335 41.7003 13.4313C39.793 13.4217 37.8856 13.4342 35.9782 13.4246C34.7804 13.4188 33.6239 13.2133 32.55 12.6503C31.111 11.8958 30.2532 10.7377 30.2015 9.10612C30.1499 7.48043 30.1322 5.84887 30.2141 4.22538C30.2797 2.92116 30.9915 1.91126 32.0624 1.15896C33.0464 0.46832 34.1571 0.127035 35.3454 0.118228C39.3342 0.0896042 43.3237 0.0947418 47.3125 0.0874023C47.3848 0.0874023 47.4578 0.0947418 47.5611 0.100613C47.5663 0.203366 47.5751 0.299512 47.5751 0.396393C47.5766 1.23896 47.5677 2.0808 47.581 2.92337C47.5847 3.16777 47.525 3.24704 47.2624 3.2463C43.5952 3.23676 39.9279 3.23603 36.2607 3.2463C35.8986 3.24704 35.5268 3.30722 35.1757 3.3997C34.2516 3.64263 33.7043 4.3208 33.6792 5.26538C33.6556 6.15272 33.6549 7.04153 33.6792 7.92887C33.7072 8.91676 34.3327 9.56557 35.3918 9.71896C35.8816 9.78942 36.3787 9.83199 36.8729 9.83639C38.559 9.85034 40.2451 9.82832 41.9312 9.84667C43.0058 9.85841 44.082 9.90759 45.1087 10.2768C46.3146 10.7105 47.3295 11.3769 47.8583 12.6019C48.1497 13.2764 48.2315 13.9942 48.2345 14.7171C48.2404 16.2716 48.267 17.8283 48.2006 19.3806C48.1475 20.6202 47.4586 21.5509 46.4739 22.2738C45.6869 22.8514 44.7841 23.1406 43.8312 23.2896C42.6193 23.4782 41.3979 23.512 40.1728 23.5083C37.0034 23.4995 33.8333 23.5054 30.664 23.5054H30.3085H30.31Z" fill="white"/>
<path d="M105.88 8.98137C106.56 8.0889 107.407 7.48412 108.429 7.12449C109.609 6.70981 110.827 6.60339 112.068 6.68045C112.945 6.73477 113.799 6.88963 114.599 7.26174C116.096 7.95825 116.937 9.17293 117.266 10.7406C117.406 11.4063 117.479 12.097 117.484 12.7773C117.505 16.2929 117.493 19.8085 117.493 23.3234C117.493 23.4313 117.493 23.5384 117.493 23.6617H114.358C114.358 23.5421 114.358 23.435 114.358 23.3278C114.358 19.6845 114.361 16.0405 114.354 12.3972C114.353 11.9979 114.317 11.5927 114.244 11.2001C114.039 10.083 113.629 9.65807 112.493 9.46724C111.258 9.25954 110.023 9.31312 108.803 9.61844C107.635 9.91128 107.078 10.737 106.894 11.8474C106.791 12.4661 106.722 13.0981 106.719 13.7249C106.702 16.9197 106.711 20.1146 106.711 23.3102C106.711 23.4188 106.711 23.5274 106.711 23.6573H103.575V23.3425C103.575 19.9186 103.581 16.4948 103.571 13.0709C103.57 12.4882 103.545 11.8995 103.461 11.3241C103.319 10.3509 102.706 9.75642 101.765 9.52302C100.646 9.24486 99.5217 9.28156 98.4257 9.65146C97.1194 10.0918 96.3951 11.0584 96.1126 12.3553C95.9836 12.9483 95.9164 13.5656 95.9128 14.1726C95.8928 17.2118 95.9039 20.2511 95.9039 23.2911V23.6625H92.7862C92.7862 23.57 92.7862 23.4739 92.7862 23.3777C92.7862 17.995 92.7884 12.6115 92.7803 7.22871C92.7803 6.96229 92.8533 6.89036 93.1173 6.8955C93.9464 6.91165 94.7761 6.90137 95.6052 6.90137C95.6952 6.90137 95.7852 6.90137 95.8892 6.90137V8.42578C96.3059 8.11532 96.7049 7.76449 97.1541 7.4966C98.0023 6.99018 98.9479 6.78247 99.9296 6.70027C100.983 6.61146 102.021 6.66504 103.049 6.91825C104.261 7.21697 105.243 7.83275 105.88 8.98357L105.88 8.98137Z" fill="white"/>
<path d="M24.7222 12.7889C23.3157 10.7705 21.3087 9.93677 19.0075 9.67035C18.1785 9.5742 17.3384 9.53971 16.5034 9.5331C14.3571 9.51475 12.21 9.53016 10.0637 9.52576C9.05246 9.52356 8.04198 9.51182 7.04773 9.28503C5.68764 8.97457 4.94269 8.19879 4.87852 6.82705C4.81509 5.46851 4.81657 4.10264 4.88295 2.74484C4.95007 1.38411 5.93768 0.405027 7.36268 0.173101C7.86792 0.0908987 8.38496 0.0402565 8.89683 0.0387886C12.6186 0.0277794 16.3404 0.0314491 20.063 0.033651C22.4306 0.0351189 24.383 1.72026 24.706 4.04172C24.7348 4.24943 24.7392 4.46081 24.7392 4.67071C24.7414 7.2975 24.7407 9.92503 24.7399 12.5518C24.7399 12.6142 24.7311 12.6773 24.723 12.7903L24.7222 12.7889Z" fill="white"/>
<path d="M65.2712 23.6631H62.1121C62.1475 23.3225 62.1815 22.9967 62.2176 22.6451C62.1638 22.6635 62.1291 22.6671 62.1048 22.6847C61.067 23.4326 59.8765 23.724 58.6264 23.8436C57.3009 23.9706 55.9799 23.9611 54.6766 23.6704C53.366 23.3783 52.2154 22.811 51.4564 21.647C50.9644 20.8932 50.7527 20.0528 50.7048 19.1625C50.6583 18.3009 50.7077 17.4481 50.8958 16.6048C51.2668 14.9372 52.3002 13.8965 53.9656 13.5354C54.8219 13.3497 55.7048 13.2455 56.5811 13.1978C57.6638 13.1398 58.7517 13.1537 59.8286 13.346C60.6399 13.4906 61.421 13.7064 62.1011 14.1915C62.118 14.1805 62.1439 14.171 62.1446 14.1614C62.1667 13.0737 62.1675 11.989 61.9403 10.9145C61.7684 10.1042 61.3192 9.60218 60.4887 9.43851C58.9612 9.1376 57.4411 9.12438 55.9379 9.55814C55.6443 9.64255 55.3589 9.79594 55.1066 9.96989C54.6811 10.2635 54.4804 10.698 54.4679 11.2132C54.4627 11.4055 54.462 11.5978 54.4701 11.7901C54.4841 12.138 54.4871 12.138 54.1271 12.138C53.2981 12.138 52.4683 12.1365 51.6393 12.1394C51.4874 12.1394 51.3701 12.1343 51.3701 11.9288C51.3686 11.0297 51.4431 10.1409 51.7227 9.27998C52.1276 8.03227 53.0267 7.33429 54.2761 7.03264C55.8818 6.64512 57.5134 6.61136 59.153 6.68475C60.1185 6.72805 61.0714 6.84402 62.0096 7.08548C63.7009 7.52145 64.6892 8.61943 65.0152 10.2914C65.165 11.0576 65.2572 11.8466 65.2623 12.626C65.2881 16.2143 65.2734 19.8033 65.2734 23.3915V23.6609L65.2712 23.6631ZM57.8851 15.6822C57.0059 15.7827 56.1208 15.8671 55.2416 15.9897C54.5454 16.0866 54.1707 16.5424 54.032 17.2036C53.8801 17.9266 53.8727 18.6554 53.9855 19.3835C54.0984 20.1123 54.3499 20.753 55.173 20.9526C55.5013 21.0319 55.8346 21.1339 56.1673 21.1427C57.1394 21.1684 58.1152 21.1868 59.0859 21.1405C59.8102 21.106 60.5168 20.9211 61.1548 20.549C61.7308 20.2128 62.1446 19.7372 62.2088 19.0649C62.2552 18.5813 62.236 18.0822 62.1726 17.5992C62.0509 16.6686 61.4668 16.1321 60.5522 15.9926C59.6745 15.8591 58.7879 15.7857 57.8851 15.6829V15.6822Z" fill="white"/>
<path d="M89.7983 16.0999H78.1778C78.2 16.5836 78.1963 17.0482 78.2486 17.5069C78.3224 18.1579 78.4183 18.8075 78.5392 19.4511C78.7244 20.4361 79.4346 20.8559 80.3463 21.0401C81.5212 21.2779 82.7088 21.2368 83.894 21.1803C84.3963 21.1561 84.8993 21.0805 85.3928 20.9807C86.1658 20.8243 86.5242 20.4067 86.5913 19.6236C86.6341 19.1238 86.6474 18.6218 86.6747 18.1036C86.7256 18.097 86.7868 18.0831 86.848 18.0831C87.742 18.0816 88.6359 18.0816 89.5291 18.0831C89.656 18.0831 89.7932 18.0588 89.8005 18.2599C89.83 19.1098 89.844 19.9561 89.6066 20.7876C89.1957 22.2269 88.2 23.0504 86.7964 23.4533C85.8014 23.7388 84.7813 23.8717 83.7509 23.8886C82.722 23.9054 81.6894 23.893 80.662 23.8313C79.6803 23.7719 78.7214 23.5627 77.809 23.1722C76.5183 22.6196 75.8397 21.5825 75.482 20.29C75.1611 19.1319 75.007 17.948 74.9841 16.7495C74.9635 15.6713 74.9539 14.5924 74.9871 13.515C75.024 12.3179 75.2039 11.1392 75.5771 9.99204C76.1001 8.3825 77.2315 7.45039 78.8402 7.03498C80.3146 6.65406 81.817 6.61002 83.3291 6.68635C84.2849 6.73406 85.2268 6.84856 86.1613 7.06727C87.9669 7.49076 89.0091 8.6203 89.4118 10.392C89.6574 11.4746 89.7755 12.5697 89.7946 13.6757C89.8086 14.4706 89.7976 15.2654 89.7976 16.0999H89.7983ZM78.2354 13.5003H86.6732C86.6054 12.7553 86.5663 12.0273 86.4667 11.3073C86.3288 10.3062 85.7601 9.68892 84.7238 9.55535C84.1876 9.48635 83.6506 9.40562 83.1115 9.37479C82.0722 9.31461 81.0359 9.35057 80.0196 9.61259C79.3963 9.77333 78.8756 10.064 78.6418 10.7098C78.3165 11.6067 78.2464 12.5381 78.2354 13.501V13.5003Z" fill="white"/>
<path d="M71.9809 23.6645H68.9111V0.0512695H71.9809V23.6645Z" fill="white"/>
</g>
<defs>
<clipPath id="clip0_222_323">
<rect width="117.551" height="24" fill="white"/>
</clipPath>
</defs>
</svg>
