<svg width="25" height="25" viewBox="0 0 25 25" fill="none" xmlns="http://www.w3.org/2000/svg">
<g clip-path="url(#clip0_223_3321)">
<path d="M5.7666 4.81635H9.7666L11.7666 9.81635L9.2666 11.3163C10.3376 13.4879 12.0951 15.2454 14.2666 16.3163L15.7666 13.8163L20.7666 15.8163V19.8163C20.7666 20.3468 20.5559 20.8555 20.1808 21.2306C19.8057 21.6056 19.297 21.8163 18.7666 21.8163C14.8659 21.5793 11.1868 19.9228 8.42343 17.1595C5.66011 14.3962 4.00365 10.7171 3.7666 6.81635C3.7666 6.28591 3.97732 5.7772 4.35239 5.40213C4.72746 5.02706 5.23617 4.81635 5.7666 4.81635Z" stroke="#1996A8" stroke-width="2" stroke-linecap="round" stroke-linejoin="round"/>
</g>
<defs>
<clipPath id="clip0_223_3321">
<rect width="24" height="24" fill="white" transform="translate(0.766602 0.816345)"/>
</clipPath>
</defs>
</svg>
